<svg width="500" height="501" viewBox="0 0 500 501" fill="none" xmlns="http://www.w3.org/2000/svg">
<path d="M409.627 272.759H271.248V384.787H409.627V272.759Z" fill="#FFAFA4"/>
<path fill-rule="evenodd" clip-rule="evenodd" d="M311.211 324.141H289.543V371.193H311.211V324.141ZM396.207 326.373H374.54V371.193H396.207V326.373ZM367.877 313.82H346.207V371.193H367.877V313.82ZM339.544 297.754H317.874V371.193H339.544V297.754ZM390.111 318.993H380.355V324.322H390.111V318.993ZM304.838 316.921H295.083V322.248H304.838V316.921ZM361.92 306.947H352.164V312.276H361.92V306.947ZM333.236 290.512H323.483V295.842H333.236V290.512Z" fill="#FFF1E2"/>
<path fill-rule="evenodd" clip-rule="evenodd" d="M352.049 362.7L394.628 316.661C395.236 316.004 396.256 315.973 396.904 316.591C397.55 317.211 397.581 318.249 396.974 318.906L353.07 366.378C352.741 366.732 352.275 366.92 351.8 366.891C351.322 366.861 350.88 366.617 350.599 366.224L320.091 323.93L287.52 367.98C286.984 368.703 285.976 368.85 285.265 368.305C284.555 367.763 284.41 366.734 284.946 366.012L318.818 320.198C319.126 319.783 319.606 319.541 320.115 319.543C320.624 319.546 321.102 319.795 321.404 320.213L352.049 362.7Z" fill="#DC5D3C"/>
<path fill-rule="evenodd" clip-rule="evenodd" d="M331.181 167.934C331.013 167.461 330.921 166.95 330.921 166.419C330.921 163.929 332.942 161.907 335.433 161.907C337.922 161.907 339.944 163.929 339.944 166.419C339.944 168.909 337.922 170.931 335.433 170.931C334.827 170.931 334.25 170.811 333.721 170.595L288.568 223.393C288.857 223.988 289.02 224.656 289.02 225.362C289.02 227.852 286.997 229.873 284.508 229.873C282.018 229.873 279.997 227.852 279.997 225.362C279.997 225.238 280.001 225.116 280.012 224.996L275.711 222.011C274.946 222.605 273.987 222.958 272.945 222.958C272.44 222.958 271.955 222.875 271.503 222.723L225.888 282.837C226.028 283.273 226.103 283.736 226.103 284.217C226.103 286.706 224.082 288.729 221.591 288.729C219.1 288.729 217.08 286.706 217.08 284.217C217.08 283.974 217.098 283.736 217.135 283.505L189.018 255.325C188.39 255.656 187.675 255.844 186.915 255.844C186.461 255.844 186.022 255.777 185.608 255.65L136.645 331.877C137.044 332.55 137.274 333.335 137.274 334.175C137.274 336.664 135.252 338.687 132.762 338.687C130.272 338.687 128.25 336.664 128.25 334.175C128.25 331.685 130.272 329.662 132.762 329.662C133.069 329.662 133.369 329.693 133.659 329.752L182.817 253.222C182.552 252.647 182.404 252.007 182.404 251.333C182.404 248.842 184.426 246.82 186.915 246.82C189.406 246.82 191.428 248.842 191.428 251.333C191.428 251.708 191.381 252.074 191.295 252.424L219.199 280.392C219.893 279.957 220.713 279.706 221.591 279.706C222.23 279.706 222.838 279.838 223.388 280.078L268.8 220.23C268.564 219.683 268.432 219.08 268.432 218.447C268.432 215.957 270.455 213.935 272.945 213.935C275.435 213.935 277.457 215.957 277.457 218.447C277.457 218.552 277.453 218.656 277.446 218.76L281.782 221.768C282.539 221.192 283.484 220.85 284.508 220.85C284.948 220.85 285.372 220.913 285.773 221.03L331.181 167.934Z" fill="#FFAFA4"/>
<path d="M240.795 129.566H97.4197V237.872H240.795V129.566Z" fill="#FFF1E2"/>
<path fill-rule="evenodd" clip-rule="evenodd" d="M126.188 147.87H116.432V227.323H126.188V147.87ZM145.545 140.778H135.789V227.281H145.545V140.778ZM164.902 158.931H155.146V227.235H164.902V158.931ZM184.26 147.662H174.503V227.185H184.26V147.662ZM203.617 169.758H193.862V227.131H203.617V169.758ZM222.972 185.794H213.217V227.072H222.972V185.794Z" fill="#FFAFA4" fill-opacity="0.64"/>
<path fill-rule="evenodd" clip-rule="evenodd" d="M261.401 350.952H241.909V325.028H228.569L251.655 291.55L274.741 325.028H261.401V350.952Z" fill="#E5734E"/>
<path fill-rule="evenodd" clip-rule="evenodd" d="M367.04 134.606H386.532V160.53H399.872L376.786 194.008L353.7 160.53H367.04V134.606Z" fill="#FFB000"/>
<path d="M318.512 288.031C336.453 288.031 350.997 273.237 350.997 254.987C350.997 236.737 336.453 221.943 318.512 221.943C300.57 221.943 286.026 236.737 286.026 254.987C286.026 273.237 300.57 288.031 318.512 288.031Z" fill="#FFCD80"/>
<path fill-rule="evenodd" clip-rule="evenodd" d="M310.926 232.446L309.731 232.88L309.14 231.193L311.224 230.437C311.718 230.258 312.249 230.491 312.412 230.957L313.412 233.81C315.264 233.226 317.112 232.868 318.953 232.737C321.306 232.568 323.65 232.768 325.984 233.336C326.248 233.399 326.462 233.573 326.574 233.808C326.684 234.045 326.681 234.32 326.562 234.564L323.932 239.976C323.733 240.383 323.265 240.605 322.823 240.502C320.53 239.966 318.182 239.985 315.777 240.556L319.11 250.064C328.323 248.669 333.827 251.071 335.757 256.953C336.819 260.143 336.493 263.224 334.789 266.18C333.257 268.95 330.738 271.289 327.211 273.176L328.93 278.079C329.093 278.544 328.826 279.065 328.333 279.244L326.286 279.986L325.695 278.301L326.852 277.881L325.171 273.085C325.021 272.658 325.232 272.177 325.663 271.964C329.173 270.22 331.674 268.039 333.149 265.375C334.594 262.868 334.862 260.268 333.965 257.57C332.229 252.278 327.051 250.524 318.583 251.967C318.136 252.042 317.711 251.804 317.57 251.4L313.67 240.276C313.589 240.044 313.614 239.785 313.737 239.559C313.86 239.336 314.072 239.166 314.323 239.093C317.14 238.256 319.891 238.087 322.57 238.584L324.383 234.857C322.597 234.518 320.806 234.409 319.007 234.54C317.042 234.679 315.074 235.1 313.096 235.8C312.606 235.973 312.08 235.739 311.918 235.276L310.926 232.446ZM324.82 266.354C325.985 265.513 326.749 264.647 327.069 263.728C327.263 263.14 327.342 262.528 327.306 261.895L329.183 261.72C329.228 262.578 329.118 263.406 328.851 264.218C328.325 265.723 326.994 267.181 324.784 268.521C324.539 268.668 324.244 268.706 323.978 268.622C323.714 268.537 323.507 268.339 323.418 268.085L321.328 262.123L323.11 261.477L324.82 266.354ZM306.707 246.036C306.752 245.16 306.938 244.378 307.253 243.688C307.26 243.671 307.27 243.654 307.278 243.637C308.035 242.214 309.153 241.147 310.627 240.435C310.868 240.319 311.148 240.305 311.392 240.395C311.637 240.487 311.824 240.677 311.908 240.915L313.619 245.798L311.838 246.444L310.488 242.594C309.852 243.065 309.342 243.658 308.956 244.375C308.734 244.87 308.614 245.431 308.581 246.059C308.582 246.075 308.579 246.092 308.577 246.109C308.506 246.773 308.623 247.504 308.903 248.303L307.121 248.949C306.75 247.891 306.619 246.919 306.707 246.036Z" fill="#FDA31F"/>
<path fill-rule="evenodd" clip-rule="evenodd" d="M309.692 251.999C308.482 251.369 307.619 250.358 307.124 248.946L308.906 248.3C309.245 249.268 309.818 249.975 310.649 250.405L310.679 250.42C311.343 250.797 312.256 250.953 313.415 250.931L311.841 246.442L313.623 245.795L315.596 251.424C315.687 251.686 315.645 251.979 315.482 252.219C315.32 252.457 315.054 252.616 314.763 252.646C312.517 252.88 310.832 252.636 309.692 251.999Z" fill="#FDA31F"/>
<path fill-rule="evenodd" clip-rule="evenodd" d="M321.696 257.439L323.111 261.475L321.329 262.121L319.555 257.062C319.469 256.815 319.501 256.539 319.643 256.307C319.787 256.074 320.025 255.908 320.296 255.855C322.919 255.336 324.845 255.493 326.088 256.186L326.116 256.204C327.353 256.958 328.222 258.033 328.713 259.435C328.988 260.219 329.143 260.982 329.183 261.719L327.306 261.893C327.275 261.307 327.149 260.703 326.931 260.081C326.578 259.073 325.962 258.297 325.078 257.753C324.298 257.324 323.17 257.242 321.696 257.439Z" fill="#FDA31F"/>
<path fill-rule="evenodd" clip-rule="evenodd" d="M316.025 258.392C307.137 259.651 301.875 257.277 300.094 251.59C298.978 248.178 299.197 245.114 300.689 242.399C302.055 239.915 304.516 237.708 308.112 235.819L307.084 232.886C306.921 232.42 307.187 231.898 307.678 231.72L309.138 231.19L309.729 232.877L309.162 233.083L310.154 235.913C310.304 236.342 310.092 236.825 309.658 237.038C306.092 238.792 303.638 240.824 302.339 243.186C301.076 245.487 300.943 248.085 301.891 250.989C303.486 256.083 308.429 257.805 316.562 256.496C317.005 256.425 317.427 256.662 317.567 257.062L321.654 268.722C321.738 268.96 321.709 269.224 321.582 269.451C321.452 269.679 321.231 269.847 320.973 269.916C318.673 270.527 316.619 270.739 314.816 270.566C313.254 270.483 311.787 270.208 310.411 269.742L307.952 273.702C309.988 274.211 312.142 274.482 314.408 274.519C317.044 274.538 319.651 274.097 322.231 273.198C322.723 273.028 323.245 273.261 323.407 273.722L325.088 278.518L325.694 278.299L326.285 279.984L324.787 280.527C324.295 280.705 323.765 280.473 323.602 280.008L321.911 275.185C319.4 275.966 316.866 276.344 314.302 276.325C311.428 276.279 308.736 275.878 306.217 275.127C305.953 275.048 305.743 274.855 305.649 274.602C305.553 274.351 305.584 274.065 305.732 273.826L309.236 268.186C309.483 267.785 309.998 267.613 310.43 267.787C311.841 268.354 313.374 268.678 315.023 268.764L315.067 268.767C316.403 268.898 317.894 268.78 319.54 268.42L316.025 258.392Z" fill="#FDA31F"/>
<path fill-rule="evenodd" clip-rule="evenodd" d="M325.365 292.168C322.952 292.674 320.45 292.94 317.89 292.94C315.768 292.94 314.049 291.189 314.049 289.032C314.049 286.876 315.768 285.125 317.89 285.125C334.023 285.125 347.121 271.802 347.121 255.392C347.121 238.981 334.023 225.658 317.89 225.658C315.768 225.658 314.049 223.907 314.049 221.75C314.049 219.594 315.768 217.842 317.89 217.842C338.264 217.842 354.805 234.667 354.805 255.392C354.805 270.751 345.717 283.969 332.717 289.782L356.8 347.568C357.629 349.554 356.716 351.85 354.764 352.69C352.812 353.533 350.555 352.604 349.727 350.619L325.365 292.168Z" fill="#DC5D3C"/>
<path fill-rule="evenodd" clip-rule="evenodd" d="M317.89 285.124C301.757 285.124 288.659 271.801 288.659 255.391C288.659 238.981 301.757 225.658 317.89 225.658C320.01 225.658 321.732 223.907 321.732 221.75C321.732 219.593 320.01 217.842 317.89 217.842C297.517 217.842 280.975 234.667 280.975 255.391C280.975 276.114 297.517 292.939 317.89 292.939C320.01 292.939 321.732 291.188 321.732 289.031C321.732 286.875 320.01 285.124 317.89 285.124Z" fill="#DC5D3C"/>
<path fill-rule="evenodd" clip-rule="evenodd" d="M369.621 304.901C369.621 304.901 367.554 297.002 368.238 286.932C369.203 272.769 378.114 260.445 391.118 255.287C404.12 250.13 418.882 253.065 429.017 262.824C431.358 265.088 433.492 267.748 435.288 270.876C444.115 286.263 446.977 303.225 439.543 319.985C439.543 319.985 444.333 351.987 437.433 375.055C433.951 386.641 424.073 395.043 412.248 396.479C411.849 396.533 411.448 396.579 411.042 396.628C400.242 397.94 389.648 392.906 383.703 383.642C372.128 365.603 354.323 337.858 354.323 337.858C354.323 337.858 344.248 338.749 340.356 339.094C338.964 339.221 337.717 338.222 337.513 336.815C337.401 335.972 337.66 335.044 338.844 334.258C338.844 334.258 337.593 334.248 336.613 334.006C335.067 333.628 334.447 332.282 334.38 330.841C334.318 329.485 334.711 327.92 336.524 327.002C334.241 327.439 332.027 325.956 331.523 323.651C331.501 323.558 331.482 323.47 331.465 323.387C331.28 322.549 331.398 321.672 331.794 320.915C332.169 320.195 332.814 319.406 333.919 318.93C333.919 318.93 332.843 318.59 331.681 318.224C330.003 317.694 328.857 316.116 328.857 314.328V314.326C328.857 312.741 329.799 311.309 331.242 310.704C334.375 309.382 339.494 307.228 339.494 307.228C339.494 307.228 332.901 298.675 335.643 296.162C336.13 295.715 337.218 295.456 340.416 298.226C341.624 299.271 346.313 300.607 352.246 299.779C352.246 299.779 360.009 299.73 369.621 304.901ZM376.757 212.864C386.844 212.864 395.034 221.195 395.034 231.456C395.034 241.717 386.844 250.048 376.757 250.048C366.668 250.048 358.477 241.717 358.477 231.456C358.477 221.195 366.668 212.864 376.757 212.864Z" fill="#A8CFCC"/>
<path fill-rule="evenodd" clip-rule="evenodd" d="M353.703 337.914L357.708 337.454C358.234 337.393 358.709 337.779 358.769 338.317C358.829 338.852 358.45 339.335 357.922 339.396L355.487 339.675L354.322 337.857L353.703 337.914ZM334.869 332.702L346.439 331.615C346.968 331.564 347.436 331.959 347.484 332.497C347.534 333.034 347.145 333.51 346.617 333.559L338.787 334.294C338.804 334.282 338.823 334.27 338.842 334.257C338.842 334.257 337.591 334.248 336.612 334.006C335.783 333.803 335.222 333.324 334.869 332.702ZM332.794 325.907C332.88 325.856 332.979 325.817 333.082 325.792L343.801 323.443C344.317 323.328 344.828 323.665 344.941 324.193C345.052 324.718 344.723 325.238 344.204 325.353L336.403 327.065C336.441 327.043 336.482 327.021 336.523 327.001C335.13 327.267 333.764 326.82 332.794 325.907ZM330.856 317.857L342.29 314.274C342.797 314.115 343.335 314.404 343.491 314.919C343.647 315.434 343.361 315.981 342.855 316.14L333.824 318.971C333.855 318.956 333.887 318.941 333.918 318.929C333.918 318.929 332.842 318.59 331.68 318.223C331.389 318.131 331.113 318.008 330.856 317.857ZM338.333 305.599L342.334 303.916C342.823 303.709 343.385 303.945 343.589 304.444C343.791 304.944 343.558 305.516 343.068 305.721L339.491 307.226C339.459 307.184 338.974 306.551 338.333 305.599Z" fill="#82B5B2"/>
<path fill-rule="evenodd" clip-rule="evenodd" d="M369.529 304.534C369.137 302.868 367.637 295.729 368.234 286.934C369.2 272.771 378.11 260.447 391.114 255.289C404.116 250.132 418.878 253.067 429.013 262.826C431.355 265.09 433.489 267.75 435.285 270.878C444.112 286.265 446.974 303.227 439.54 319.987C439.54 319.987 444.33 351.989 437.429 375.057C433.948 386.643 424.07 395.045 412.244 396.481C411.846 396.535 411.445 396.581 411.039 396.63C400.239 397.941 389.645 392.908 383.7 383.644L375.774 371.293L402.721 339.259C388.634 316.953 373.291 306.803 369.529 304.534Z" fill="url(#paint0_linear_3_1212)"/>
<path fill-rule="evenodd" clip-rule="evenodd" d="M402.62 339.097C402.668 339.144 402.714 339.2 402.752 339.258L420.158 365.983C420.451 366.435 420.331 367.04 419.889 367.338C419.447 367.636 418.852 367.512 418.559 367.062L401.441 340.783L402.724 339.258L402.62 339.097ZM439.71 321.222L439.753 321.569L439.7 321.681C439.7 321.681 435.856 299.912 430.341 283.27C430.209 282.926 430.363 282.537 430.689 282.381C431.016 282.222 431.407 282.349 431.587 282.669C434.524 288.47 438.55 297.152 443.014 308.837C442.949 309.183 442.882 309.53 442.81 309.875L442.807 309.887L442.774 310.048L442.771 310.063L442.735 310.226L442.733 310.236C442.661 310.58 442.582 310.925 442.5 311.267L442.498 311.279L442.459 311.435L442.455 311.46L442.419 311.611L442.409 311.64L442.373 311.789L442.366 311.816L442.327 311.97L442.325 311.98C442.267 312.205 442.207 312.429 442.147 312.656L442.142 312.671L442.104 312.815L442.092 312.857L442.056 312.989L442.042 313.04L442.005 313.169L441.991 313.223L441.955 313.35L441.941 313.404L441.902 313.533L441.89 313.577L441.849 313.714C441.833 313.773 441.816 313.831 441.797 313.89L441.751 314.041L441.744 314.066L441.708 314.188L441.689 314.251L441.653 314.364L441.631 314.437L441.597 314.544L441.573 314.622L441.54 314.728L441.513 314.808L441.48 314.913L441.453 314.994L441.42 315.096L441.393 315.179L441.36 315.282L441.326 315.38L441.302 315.458L441.271 315.546L441.24 315.641L441.208 315.734L441.175 315.829L441.144 315.919L441.11 316.015L441.079 316.105L441.045 316.203L441.014 316.291L440.978 316.391L440.947 316.476L440.911 316.581L440.882 316.662L440.836 316.784L440.812 316.847L440.745 317.031L440.721 317.092L440.675 317.216L440.646 317.292L440.606 317.402L440.574 317.482L440.534 317.59L440.502 317.671L440.462 317.778L440.43 317.859L440.387 317.969L440.356 318.044L440.308 318.164L440.281 318.23L440.219 318.384L440.207 318.415L440.13 318.601L440.109 318.657L440.053 318.787L440.025 318.86L439.977 318.975L439.945 319.05L439.897 319.16L439.866 319.239L439.818 319.351L439.784 319.427L439.736 319.541L439.705 319.612L439.65 319.739L439.624 319.798L439.542 319.986L439.556 320.084L439.559 320.115L439.573 320.206L439.578 320.25L439.597 320.379L439.604 320.428L439.626 320.601L439.633 320.653L439.664 320.872L439.669 320.916L439.705 321.195L439.71 321.222ZM378.628 311.184C378.628 311.184 377.714 303.991 376.482 282.852C376.453 282.381 376.772 282.234 376.948 282.195C377.26 282.125 377.498 282.33 377.526 282.51L382.677 314.774C381.253 313.443 379.899 312.249 378.628 311.184Z" fill="#28625E"/>
<path fill-rule="evenodd" clip-rule="evenodd" d="M362.518 219.803C365.87 215.573 371.004 212.864 376.757 212.864C386.844 212.864 395.034 221.195 395.034 231.456C395.034 237.262 392.412 242.45 388.309 245.86L381.929 239.414C382.608 239.365 383.309 239.181 383.989 238.853C386.392 237.689 387.01 234.628 386.085 232.653C385.158 230.677 382.457 230.018 380.056 231.182C378.498 231.937 378.025 233.787 377.732 235.173L362.518 219.803Z" fill="black"/>
<path d="M201.523 271.162C219.464 271.162 234.008 256.368 234.008 238.118C234.008 219.869 219.464 205.075 201.523 205.075C183.581 205.075 169.037 219.869 169.037 238.118C169.037 256.368 183.581 271.162 201.523 271.162Z" fill="#A8CFCC"/>
<path fill-rule="evenodd" clip-rule="evenodd" d="M169.857 230.696C170.093 230.589 170.379 230.527 170.726 230.589C171.41 230.711 171.896 231.307 171.916 231.987C172.144 232.397 172.757 233.469 173.489 234.48C175.217 236.868 178.132 240.298 182.169 243.799C184.017 235.753 187.557 229.044 191.47 223.664C185.691 219.128 182.512 214.95 181.866 214.152C181.359 213.528 181.448 212.604 182.061 212.089C182.675 211.575 183.583 211.664 184.089 212.288C184.707 213.049 187.734 217.026 193.242 221.344C200.748 211.981 208.878 207.32 208.878 207.32C209.57 206.922 210.449 207.172 210.84 207.876C211.231 208.581 210.987 209.475 210.293 209.873C210.293 209.873 202.645 214.259 195.555 223.066C201.046 226.95 208.513 230.804 218.007 232.593C219.028 225.548 218.656 219.003 217.938 214.151C217.82 213.351 218.363 212.604 219.148 212.484C219.935 212.363 220.67 212.915 220.788 213.715C221.542 218.81 221.919 225.668 220.848 233.057C224.543 233.568 228.524 233.762 232.791 233.534C233.144 233.515 233.47 233.626 233.732 233.826C233.823 234.537 233.891 235.254 233.939 235.978C233.691 236.257 233.341 236.44 232.942 236.461C228.447 236.701 224.253 236.494 220.356 235.951C218.961 243.099 216.127 250.582 210.927 257.338C216.156 258.11 221.876 258.157 228.066 257.155C227.259 258.318 226.378 259.427 225.434 260.472C219.424 261.141 213.861 260.875 208.758 259.954C205.27 263.867 200.892 267.469 195.427 270.534C195.408 270.547 195.387 270.556 195.365 270.566C194.774 270.451 194.191 270.32 193.612 270.173C193.559 270.107 193.511 270.036 193.471 269.958C193.086 269.25 193.341 268.358 194.037 267.968C198.597 265.408 202.355 262.453 205.438 259.248C196.885 257.158 189.756 253.266 184.145 249.094C183.516 253.84 183.518 259.019 184.402 264.631C184.478 265.125 184.303 265.601 183.972 265.923C183.083 265.342 182.226 264.719 181.4 264.055C180.536 257.878 180.68 252.207 181.53 247.045C174.719 241.423 170.628 235.742 169.478 233.602C169.437 233.527 169.4 233.454 169.365 233.383C169.493 232.475 169.658 231.578 169.857 230.696ZM193.778 225.39C189.852 230.794 186.322 237.616 184.678 245.863C190.503 250.405 198.213 254.747 207.668 256.752C213.162 250.113 216.098 242.631 217.513 235.487C207.457 233.601 199.562 229.504 193.778 225.39ZM170.714 233.477C170.647 233.489 170.579 233.496 170.509 233.497C170.44 233.499 170.37 233.495 170.299 233.486C170.45 233.506 170.588 233.501 170.714 233.477Z" fill="#82B5B2"/>
<path fill-rule="evenodd" clip-rule="evenodd" d="M90.6312 300.533C90.6312 300.533 42.89 262.11 76.052 216.6C79.5816 211.757 100.999 183.525 131.435 164.39C132.623 163.64 134.153 163.765 135.209 164.697C135.883 165.306 136.321 166.236 135.886 167.664C135.886 167.664 140.597 166.62 140.272 171.222C140.272 171.222 145.788 169.718 145.979 175.497C145.979 175.497 155.098 164.132 159.07 159.18C160.112 157.882 161.932 157.559 163.343 158.422C163.344 158.422 163.344 158.422 163.344 158.422C163.985 158.813 164.446 159.448 164.626 160.185C164.806 160.923 164.691 161.703 164.305 162.354C147.354 190.91 129.336 217.109 111.263 243.189C111.263 243.189 126.171 258.529 133.853 264.051C136.973 266.291 168.145 286.103 172.653 296.952C172.653 296.952 173.033 294.466 173.467 291.635C174.217 286.726 177.774 282.75 182.504 281.524C185.712 280.693 188.689 279.922 188.689 279.922C188.689 279.922 194.01 278.998 198.541 279.035C201.509 279.057 204.131 280.999 205.067 283.861C205.497 285.182 205.317 286.631 204.573 287.798C204.153 288.46 203.78 289.041 203.78 289.041C203.78 289.041 204.849 289.41 205.84 289.752C206.897 290.116 207.749 290.92 208.189 291.962C209.044 293.994 208.676 296.346 207.243 298.01C206.796 298.53 206.465 298.913 206.465 298.913H206.789C208.479 298.913 209.999 299.959 210.631 301.556C211.498 303.749 210.796 306.26 208.928 307.664C208.465 308.011 208.143 308.255 208.143 308.255C208.729 308.053 209.276 308.463 209.661 309.403C210.422 311.262 209.723 313.409 208.066 314.51C205.483 316.227 202.073 318.494 202.073 318.494C201.307 334.523 199.403 351.812 190.459 372.418C187.76 378.615 182.451 383.233 176.016 384.984C176.012 384.989 176.007 384.989 176.002 384.992C162.532 388.655 148.415 381.985 142.481 369.153C139.631 362.986 136.589 355.385 133.853 346.434C133.853 346.434 122.53 347.939 111.263 342.136C97.7275 335.165 84.2741 319.363 90.6312 300.533Z" fill="url(#paint1_linear_3_1212)"/>
<path fill-rule="evenodd" clip-rule="evenodd" d="M70.2744 274.358C71.6963 269.918 76.6594 259.946 92.42 260.884C92.42 260.884 98.01 244.304 115.685 247.64C120.698 252.613 128.825 260.437 133.855 264.051C136.974 266.291 168.147 286.103 172.655 296.952L172.707 296.613C175.616 305.298 180.899 323.938 178.244 344.109C178.244 344.109 167.778 351.229 157.599 342.285C157.599 342.285 147.964 355.288 134.028 346.996C133.97 346.808 133.912 346.622 133.855 346.434C133.855 346.434 122.531 347.939 111.264 342.136C97.729 335.165 84.2757 319.363 90.6328 300.533C90.6328 300.533 78.0297 290.39 70.2744 274.358ZM136.531 259.729L140.632 262.325C139.153 261.638 137.776 260.764 136.531 259.729Z" fill="#FD9500"/>
<path fill-rule="evenodd" clip-rule="evenodd" d="M176.807 339.419L174.48 366.148C174.434 366.685 174.825 367.161 175.353 367.208C175.881 367.256 176.346 366.858 176.394 366.321L178.718 339.592C178.766 339.055 178.375 338.578 177.847 338.532C177.319 338.483 176.853 338.881 176.807 339.419Z" fill="#FD9500"/>
<path fill-rule="evenodd" clip-rule="evenodd" d="M126.944 346.475C126.125 336.695 128.311 328.743 129.772 324.689C129.89 324.406 130.186 324.249 130.481 324.31C130.775 324.371 130.987 324.635 130.987 324.94C131.27 332.89 133.327 343.6 133.991 346.88C133.945 346.731 133.899 346.585 133.854 346.436C133.854 346.436 131.094 346.802 126.944 346.475ZM83.9768 294.13C87.4524 289.744 90.8884 286.425 94.0871 283.911C99.013 280.04 103.376 278.081 106.452 277.08C106.808 277 107.17 277.19 107.313 277.53C107.456 277.871 107.338 278.267 107.034 278.472C97.7267 284.949 92.4188 296.167 90.6228 300.527C90.4468 300.383 87.6678 298.114 83.9768 294.13Z" fill="#E15D33"/>
<path fill-rule="evenodd" clip-rule="evenodd" d="M208.161 308.249C208.742 308.064 209.28 308.476 209.659 309.404C209.681 309.456 209.7 309.507 209.719 309.558C207.945 310.687 204.086 312.914 200.561 313.41C200.036 313.483 199.55 313.11 199.478 312.577C199.404 312.042 199.771 311.549 200.297 311.476C203.217 311.065 206.377 309.348 208.161 308.249ZM206.466 298.915H206.787C207.57 298.915 208.317 299.139 208.956 299.54C207.897 300.326 203.678 303.316 199.258 304.385C198.741 304.51 198.225 304.185 198.1 303.66C197.978 303.137 198.297 302.61 198.813 302.485C201.832 301.753 204.746 300.053 206.466 298.915ZM203.791 289.048L205.702 289.707C203.942 292.02 200.641 295.459 196.043 296.397C195.524 296.504 195.017 296.16 194.912 295.632C194.808 295.102 195.144 294.587 195.666 294.482C199.404 293.717 202.165 291.07 203.791 289.048Z" fill="#FD9500"/>
<path fill-rule="evenodd" clip-rule="evenodd" d="M190.943 282.604C190.943 282.604 187.666 283.339 184.21 282.839C183.684 282.763 183.199 283.137 183.123 283.669C183.048 284.204 183.416 284.697 183.939 284.773C187.745 285.325 191.356 284.514 191.356 284.514C191.872 284.397 192.201 283.874 192.086 283.349C191.973 282.822 191.459 282.489 190.943 282.604Z" fill="#FD9500"/>
<path fill-rule="evenodd" clip-rule="evenodd" d="M145.448 173.089C145.749 173.701 145.945 174.488 145.979 175.498L147.428 173.692C147.4 173.744 147.367 173.794 147.328 173.841L143.735 178.268C143.397 178.684 142.791 178.742 142.382 178.399C141.974 178.056 141.916 177.439 142.254 177.024L145.448 173.089ZM139.785 168.816C140.143 169.361 140.348 170.133 140.272 171.22L138.044 173.815C137.695 174.221 137.088 174.262 136.689 173.908C136.289 173.553 136.248 172.936 136.597 172.529L139.785 168.816ZM135.653 165.207C136.045 165.794 136.214 166.588 135.886 167.665H135.886C134.684 168.818 133.297 170.156 133.297 170.156C132.912 170.527 132.304 170.511 131.939 170.119C131.574 169.728 131.59 169.109 131.975 168.738C131.975 168.738 134.431 166.37 135.653 165.207Z" fill="#FD9500"/>
<path fill-rule="evenodd" clip-rule="evenodd" d="M111.26 243.188C111.26 243.188 104.922 236.821 101.168 233.051C100.91 232.792 100.871 232.387 101.074 232.083C101.277 231.78 101.667 231.662 102.004 231.801C106.959 233.852 115.364 237.331 115.364 237.331L111.26 243.188Z" fill="#FD9500"/>
<path fill-rule="evenodd" clip-rule="evenodd" d="M187.844 284.899L189.301 274.025C186.972 273.205 184.691 272.135 182.49 270.801C180.667 269.7 180.067 267.299 181.15 265.445C182.235 263.592 184.595 262.983 186.415 264.085C200.282 272.474 218.235 267.832 226.482 253.728C234.728 239.624 230.166 221.363 216.299 212.974C214.477 211.872 213.877 209.472 214.962 207.618C216.045 205.765 218.405 205.154 220.228 206.257C237.739 216.85 243.499 239.911 233.086 257.723C225.366 270.926 210.914 277.562 196.819 275.798L195.871 282.872C194.132 283.709 191.251 284.794 187.844 284.899Z" fill="#DC5D3C"/>
<path fill-rule="evenodd" clip-rule="evenodd" d="M186.417 264.082C172.551 255.694 167.988 237.433 176.235 223.329C184.481 209.225 202.434 204.584 216.3 212.972C218.122 214.075 220.482 213.465 221.565 211.611C222.649 209.757 222.049 207.357 220.227 206.255C202.716 195.662 180.045 201.522 169.631 219.334C159.217 237.145 164.979 260.207 182.489 270.8C184.312 271.902 186.671 271.292 187.755 269.439C188.839 267.585 188.239 265.185 186.417 264.082Z" fill="#DC5D3C"/>
<path d="M148.457 264.051C158.888 264.051 167.344 255.45 167.344 244.839C167.344 234.229 158.888 225.628 148.457 225.628C138.026 225.628 129.57 234.229 129.57 244.839C129.57 255.45 138.026 264.051 148.457 264.051Z" fill="#FFBB22"/>
<path fill-rule="evenodd" clip-rule="evenodd" d="M141.89 252.428C138.483 253.025 134.857 253.11 131.096 252.413C130.114 250.089 129.57 247.528 129.57 244.839C129.57 234.236 138.033 225.628 148.457 225.628C156.766 225.628 163.829 231.098 166.352 238.686C165.561 242.298 159.618 249.513 147.41 250.984C147.805 249.957 147.837 248.708 147.412 247.494C146.578 245.111 144.297 243.757 142.322 244.473C140.346 245.188 139.42 247.704 140.254 250.087C140.596 251.064 141.182 251.869 141.89 252.428Z" fill="black"/>
<path d="M154.97 224.278C162.084 224.278 167.851 218.412 167.851 211.177C167.851 203.941 162.084 198.075 154.97 198.075C147.857 198.075 142.09 203.941 142.09 211.177C142.09 218.412 147.857 224.278 154.97 224.278Z" fill="black"/>
<path fill-rule="evenodd" clip-rule="evenodd" d="M291.593 169.585C284.642 182.982 270.804 192.118 254.885 192.118C231.983 192.118 213.387 173.203 213.387 149.906C213.387 135.729 220.273 123.175 230.833 115.528L254.885 149.906L291.593 169.585Z" fill="#E5734E"/>
<path fill-rule="evenodd" clip-rule="evenodd" d="M254.887 149.906L230.835 115.529C236.857 111.149 244.082 108.377 251.905 107.815L254.887 149.906Z" fill="#FFBB22"/>
<path fill-rule="evenodd" clip-rule="evenodd" d="M252.98 107.742L254.882 107.693C266.549 107.693 277.099 112.601 284.636 120.505L254.882 149.905L251.9 107.814L252.462 107.77L252.98 107.742Z" fill="#A8CFCC"/>
<path fill-rule="evenodd" clip-rule="evenodd" d="M295.852 118.031C303.123 125.627 307.599 136.001 307.599 147.431C307.599 154.537 305.867 161.235 302.806 167.11L266.098 147.431L295.852 118.031Z" fill="#FFCBC4"/>
<defs>
<linearGradient id="paint0_linear_3_1212" x1="368.095" y1="324.81" x2="471.885" y2="406.354" gradientUnits="userSpaceOnUse">
<stop stop-color="#82B5B2"/>
<stop offset="0.57" stop-color="#9AC1BB"/>
<stop offset="0.8" stop-color="#CED9CF"/>
<stop offset="1" stop-color="#FFF1E2"/>
</linearGradient>
<linearGradient id="paint1_linear_3_1212" x1="140.534" y1="337.91" x2="47.2487" y2="361.726" gradientUnits="userSpaceOnUse">
<stop stop-color="#FFBB22"/>
<stop offset="0.47" stop-color="#FEB019"/>
<stop offset="1" stop-color="#FD9500"/>
</linearGradient>
</defs>
</svg>
