<svg width="720" height="723" viewBox="0 0 720 723" fill="none" xmlns="http://www.w3.org/2000/svg">
<path fill-rule="evenodd" clip-rule="evenodd" d="M308.473 413.904C308.473 407.28 303.093 401.902 296.47 401.902H125.011C118.386 401.902 113.007 407.28 113.007 413.904V509.053C113.007 515.677 118.386 521.054 125.011 521.054H296.47C303.093 521.054 308.473 515.677 308.473 509.053V413.904Z" fill="#8ABBB8"/>
<path fill-rule="evenodd" clip-rule="evenodd" d="M146.917 497.842H126.745V512.103H146.917V497.842ZM219.933 471.192H126.698V491.427H219.933V471.192ZM294.141 471.192H246.285V491.427H294.141V471.192Z" fill="white"/>
<path d="M308.472 435.128H113.007V463.123H308.472V435.128Z" fill="black"/>
<path fill-rule="evenodd" clip-rule="evenodd" d="M143.719 483.731C143.641 482.448 143.786 481.029 144.072 479.706C144.514 477.66 145.313 475.855 146.058 475.056C146.702 474.366 147.407 474.223 147.994 474.421C148.834 474.704 149.331 475.456 149.422 476.525C149.554 478.057 148.769 480.381 148.479 481.045C147.806 482.58 146.951 483.729 145.968 484.634C146.108 485.298 146.348 485.867 146.797 486.206C147.273 486.566 147.956 486.595 148.884 486.325C149.377 486.182 150.389 485.547 151.372 484.763C151.206 483.774 151.381 482.718 151.769 481.932C152.367 480.722 153.426 480.188 154.41 480.518C155.077 480.743 155.441 481.13 155.628 481.548C155.873 482.096 155.825 482.826 155.366 483.615C155.058 484.144 154.545 484.74 153.938 485.322C154.241 485.565 154.686 485.684 155.286 485.674C156.03 485.661 157.158 485.089 158.396 484.433C160.6 483.268 163.057 481.765 164.496 481.376C165.744 481.037 166.543 481.447 166.873 482.154C167.132 482.704 167.373 483.104 167.622 483.369C167.742 483.498 167.846 483.588 167.967 483.612C168.128 483.641 168.284 483.565 168.454 483.485C168.673 483.379 168.898 483.239 169.132 483.083C170.755 482.006 172.714 480.5 175.391 481.41C176.496 481.786 176.797 482.808 176.603 484.07C176.547 484.43 176.459 484.808 176.405 485.158C176.396 485.213 176.39 485.279 176.385 485.343C176.515 485.335 176.658 485.311 176.81 485.282C177.22 485.208 177.673 485.078 178.131 484.935C179.216 484.602 180.327 484.229 181.086 484.181C189.142 483.657 197.251 483.792 205.297 483.104C205.879 483.054 206.392 483.488 206.442 484.07C206.492 484.652 206.06 485.163 205.478 485.213C197.417 485.904 189.293 485.769 181.223 486.293C180.439 486.343 179.23 486.838 178.131 487.142C177.137 487.42 176.207 487.537 175.571 487.373C174.446 487.079 174.109 486.087 174.322 484.777C174.371 484.472 174.443 484.149 174.496 483.837C174.519 483.697 174.531 483.493 174.535 483.361C173.563 483.088 172.748 483.348 172.032 483.729C171.4 484.067 170.832 484.496 170.302 484.848C169.34 485.486 168.43 485.851 167.576 485.692C166.803 485.547 165.94 484.97 165.133 483.411C164.994 483.443 164.81 483.49 164.66 483.546C164.16 483.734 163.571 484.025 162.935 484.361C160.833 485.473 158.266 487.045 156.538 487.571C156.085 487.711 155.675 487.783 155.326 487.791C153.906 487.817 152.943 487.357 152.31 486.698C151.172 487.55 150.038 488.196 149.473 488.357C147.707 488.871 146.429 488.579 145.523 487.897C144.918 487.442 144.465 486.783 144.162 485.978C143.862 486.161 143.554 486.333 143.24 486.494C141.295 487.494 139.095 488.124 136.947 489.204C136.425 489.466 135.789 489.254 135.526 488.733C135.264 488.209 135.475 487.574 135.997 487.312C137.731 486.441 139.498 485.859 141.14 485.144C142.052 484.747 142.924 484.308 143.719 483.731ZM147.322 476.888C147.028 477.361 146.751 478.015 146.513 478.759C146.372 479.198 146.246 479.669 146.141 480.153C146.056 480.55 145.983 480.955 145.929 481.363C146.149 481.008 146.353 480.619 146.54 480.193C146.737 479.743 147.241 478.327 147.314 477.168C147.32 477.073 147.323 476.978 147.322 476.888Z" fill="black"/>
<path d="M650.444 362.545H358.378V520.872H650.444V362.545Z" fill="#E4E4E6"/>
<path fill-rule="evenodd" clip-rule="evenodd" d="M558.834 503.113C559.913 499.167 561.639 495.212 564.032 491.902C564.511 491.241 565.317 489.959 566.243 489.113C567.107 488.325 568.089 487.919 569.039 488.129C570.134 488.369 570.697 489.171 570.815 490.308C570.989 491.994 569.924 494.632 569.51 495.376C567.486 499.036 564.187 502.014 560.683 504.419C560.53 505.066 560.428 505.74 560.475 506.364C560.535 507.161 560.886 507.854 561.863 508.127C563.861 508.681 566.079 508.106 568.2 507.041C569.013 506.632 569.81 506.151 570.575 505.622C570.594 505.292 570.626 504.987 570.658 504.742C571.097 501.24 573.082 497.952 575.466 495.418C575.84 495.021 577.076 493.609 578.088 493.188C578.954 492.828 579.733 492.953 580.301 493.678C580.828 494.351 580.953 495.302 580.703 496.367C580.285 498.158 578.793 500.362 578.171 501.219C576.928 502.931 574.981 504.962 572.717 506.68C572.735 506.791 572.763 506.898 572.802 506.992C572.825 507.048 572.839 507.108 572.895 507.129C573.856 507.491 574.893 507.089 575.909 506.489C577.815 505.364 579.601 503.432 580.719 502.399C581.205 501.951 582.004 501.115 582.845 500.609C583.658 500.119 584.517 499.937 585.282 500.207C586.22 500.54 586.569 501.187 586.571 502.03C586.571 502.52 586.396 503.132 586.137 503.779C585.906 504.354 585.608 504.971 585.437 505.546C585.381 505.731 585.338 505.906 585.331 506.073C585.324 506.188 585.368 506.281 585.502 506.334C586.098 506.57 586.615 506.412 587.093 506.096C587.784 505.636 588.406 504.895 589.025 504.146C589.926 503.058 590.822 501.954 591.783 501.33C592.629 500.782 593.525 500.558 594.505 500.801C595.907 501.15 596.168 502.314 595.798 503.855C595.683 504.347 595.51 504.885 595.429 505.389C595.383 505.689 595.276 505.999 595.577 506.133C596.041 506.338 596.48 506.241 596.91 506.05C597.319 505.867 597.721 505.597 598.12 505.315C598.857 504.798 599.59 504.234 600.336 503.871C600.962 503.566 601.602 503.391 602.256 503.411C602.812 503.43 603.177 503.605 603.432 503.816C603.743 504.074 603.926 504.416 603.998 504.83C604.037 505.047 604.039 505.294 604.021 505.553C604.011 505.689 604.002 505.902 603.995 506.054C606.158 506.336 608.574 505.659 610.734 505.516C614.414 505.269 618.132 505.486 621.796 505.156C622.378 505.102 622.893 505.532 622.944 506.114C622.997 506.697 622.567 507.212 621.985 507.265C618.305 507.598 614.572 507.38 610.875 507.628C608.526 507.785 605.885 508.48 603.547 508.129C603.011 508.05 602.658 507.842 602.41 507.6C602.131 507.325 601.969 506.985 601.902 506.597C601.856 506.332 601.861 506.034 601.881 505.736C601.886 505.682 601.891 505.615 601.895 505.548C601.479 505.618 601.08 505.851 600.675 506.11C599.98 506.556 599.294 507.112 598.594 507.542C597.358 508.302 596.08 508.672 594.717 508.067C593.733 507.63 593.35 506.891 593.287 506.001C593.243 505.396 593.393 504.689 593.574 504.005C593.657 503.689 593.745 503.379 593.8 503.093C593.814 503.016 593.825 502.912 593.83 502.827C593.382 502.783 592.989 503.032 592.599 503.356C591.929 503.91 591.303 504.717 590.656 505.495C589.896 506.415 589.11 507.297 588.262 507.861C587.202 508.563 586.045 508.824 584.728 508.305C583.54 507.838 583.168 506.999 583.214 505.985C583.244 505.315 583.529 504.52 583.854 503.744C584.011 503.372 584.176 503.002 584.298 502.658C584.347 502.522 584.39 502.337 584.418 502.198C584.349 502.215 584.277 502.249 584.206 502.282C584.011 502.365 583.82 502.49 583.635 502.626C583.041 503.06 582.505 503.631 582.154 503.957C580.957 505.061 579.026 507.106 576.986 508.311C575.369 509.268 573.675 509.688 572.146 509.108C571.571 508.891 571.164 508.475 570.908 507.937C570.332 508.3 569.746 508.635 569.152 508.933C566.527 510.25 563.767 510.853 561.297 510.167C559.031 509.536 558.326 507.815 558.361 505.918C558.125 506.061 557.892 506.2 557.658 506.338C556.138 507.235 554.484 508.358 552.781 508.889C552.795 508.884 552.839 508.868 552.839 508.868C552.839 508.868 552.569 508.961 552.444 508.972C552.255 508.993 552.093 508.965 551.971 508.924C551.73 508.843 551.555 508.7 551.43 508.524C551.093 508.048 551.206 507.387 551.682 507.05C551.832 506.944 552.001 506.881 552.169 506.861C553.715 506.375 555.2 505.329 556.582 504.516C557.333 504.074 558.086 503.608 558.834 503.113ZM553.109 507.237L553.123 507.256L553.121 507.251L553.109 507.237ZM553.07 507.193L553.086 507.209L553.082 507.205L553.07 507.193ZM553.031 507.154L553.047 507.168L553.04 507.161L553.031 507.154ZM552.992 507.117L552.999 507.124L552.994 507.119L552.992 507.117ZM578.714 495.277C578.513 495.409 578.234 495.6 578.06 495.762C577.589 496.201 577.187 496.679 577.009 496.869C575.219 498.772 573.657 501.143 573.003 503.714C574.412 502.464 575.614 501.138 576.457 499.976C576.917 499.341 577.947 497.867 578.458 496.488C578.596 496.106 578.7 495.737 578.712 495.404C578.714 495.36 578.716 495.319 578.714 495.277ZM561.694 501.055C564.081 499.163 566.223 496.95 567.657 494.353C567.934 493.856 568.609 492.281 568.708 491.012C568.725 490.811 568.725 490.622 568.699 490.451C568.683 490.34 568.692 490.22 568.584 490.197C568.445 490.164 568.313 490.227 568.182 490.298C568.006 490.393 567.837 490.527 567.671 490.677C566.858 491.421 566.169 492.562 565.749 493.142C564.03 495.517 562.686 498.248 561.694 501.055Z" fill="black"/>
<path fill-rule="evenodd" clip-rule="evenodd" d="M521.422 470.663V468.142C521.422 467.178 522.134 466.395 523.01 466.395C523.885 466.395 524.597 467.178 524.597 468.142V472.211C524.597 473.175 523.885 473.958 523.01 473.958H523.007C522.787 474.086 522.536 474.156 522.269 474.156H384.29C384.012 474.156 383.75 474.077 383.522 473.94C382.649 473.934 381.943 473.154 381.943 472.194V468.142C381.943 467.178 382.654 466.395 383.53 466.395C384.406 466.395 385.118 467.178 385.118 468.142V470.663H521.422ZM576.218 432.832V429.551C576.218 428.588 576.93 427.805 577.806 427.805C578.682 427.805 579.394 428.588 579.394 429.551V433.621C579.394 433.999 579.285 434.348 579.1 434.634C579.071 435.571 578.372 436.325 577.512 436.325H383.644C383.626 436.325 383.607 436.325 383.589 436.325C383.567 436.325 383.549 436.325 383.53 436.325C382.654 436.325 381.943 435.542 381.943 434.578V430.527C381.943 429.563 382.654 428.78 383.53 428.78C384.406 428.78 385.118 429.563 385.118 430.527V432.832H576.218ZM382.612 399.632L382.726 395.566C382.755 394.602 383.488 393.845 384.364 393.875C385.24 393.907 385.928 394.713 385.902 395.673L385.838 397.944H576.594V395.621C576.594 394.658 577.306 393.875 578.182 393.875C579.058 393.875 579.77 394.658 579.77 395.621V399.69C579.77 400.654 579.058 401.437 578.182 401.437C578.163 401.437 578.142 401.437 578.124 401.437C578.105 401.437 578.087 401.437 578.068 401.437H384.205C384.197 401.437 384.187 401.437 384.179 401.437H384.171C384.012 401.434 383.861 401.405 383.718 401.355C383.469 401.268 383.247 401.116 383.07 400.919L383.062 400.91L383.054 400.901L383.049 400.895C382.874 400.691 382.742 400.444 382.67 400.168C382.631 400.01 382.609 399.842 382.612 399.67V399.658C382.612 399.649 382.612 399.641 382.612 399.632Z" fill="white"/>
<path fill-rule="evenodd" clip-rule="evenodd" d="M621.578 475.848V466.392C621.578 465.517 622.289 464.805 623.165 464.805C624.041 464.805 624.753 465.517 624.753 466.392V477.436C624.753 478.315 624.044 479.024 623.165 479.024H544.461C543.583 479.024 542.873 478.315 542.873 477.436V466.392C542.873 465.517 543.585 464.805 544.461 464.805C545.337 464.805 546.049 465.517 546.049 466.392V475.848H621.578Z" fill="white"/>
<path fill-rule="evenodd" clip-rule="evenodd" d="M546.049 455.015V466.392C546.049 467.268 545.337 467.98 544.461 467.98C543.585 467.98 542.873 467.268 542.873 466.392V453.427C542.873 452.551 543.583 451.839 544.461 451.839H623.165C624.044 451.839 624.753 452.551 624.753 453.427V466.392C624.753 467.268 624.041 467.98 623.165 467.98C622.289 467.98 621.578 467.268 621.578 466.392V455.015H546.049Z" fill="white"/>
<path fill-rule="evenodd" clip-rule="evenodd" d="M551.753 472.468H559.838C560.714 472.468 561.426 471.756 561.426 470.88C561.426 470.004 560.714 469.292 559.838 469.292H551.753C550.877 469.292 550.166 470.004 550.166 470.88C550.166 471.756 550.877 472.468 551.753 472.468ZM579.771 472.468H587.853C588.729 472.468 589.441 471.756 589.441 470.88C589.441 470.004 588.729 469.292 587.853 469.292H579.771C578.895 469.292 578.183 470.004 578.183 470.88C578.183 471.756 578.895 472.468 579.771 472.468ZM565.761 472.468H573.846C574.722 472.468 575.433 471.756 575.433 470.88C575.433 470.004 574.722 469.292 573.846 469.292H565.761C564.885 469.292 564.173 470.004 564.173 470.88C564.173 471.756 564.885 472.468 565.761 472.468ZM593.778 472.468H601.863C602.739 472.468 603.451 471.756 603.451 470.88C603.451 470.004 602.739 469.292 601.863 469.292H593.778C592.902 469.292 592.191 470.004 592.191 470.88C592.191 471.756 592.902 472.468 593.778 472.468ZM607.789 472.468H615.871C616.747 472.468 617.459 471.756 617.459 470.88C617.459 470.004 616.747 469.292 615.871 469.292H607.789C606.913 469.292 606.201 470.004 606.201 470.88C606.201 471.756 606.913 472.468 607.789 472.468Z" fill="white"/>
<path d="M613.767 418.117C626.057 418.117 636.021 408.154 636.021 395.864C636.021 383.574 626.057 373.611 613.767 373.611C601.477 373.611 591.514 383.574 591.514 395.864C591.514 408.154 601.477 418.117 613.767 418.117Z" fill="white"/>
<path fill-rule="evenodd" clip-rule="evenodd" d="M613.027 383.945L613.177 373.618C613.373 373.613 613.569 373.611 613.765 373.611C614.281 373.611 614.789 373.629 615.294 373.663L615.144 383.971C617.039 383.947 619.013 383.791 621.042 383.46C619.709 379.607 618.076 376.289 616.681 373.801C617.594 373.92 618.494 374.095 619.37 374.322C620.64 376.739 622.003 379.71 623.144 383.058C625.425 382.553 627.767 381.82 630.138 380.798C630.636 381.338 631.107 381.904 631.549 382.492C628.921 383.669 626.322 384.511 623.79 385.08C623.946 385.604 624.094 386.133 624.234 386.673C625.004 389.587 625.549 392.707 625.708 395.938L636.016 396.245C636.005 396.96 635.958 397.664 635.881 398.36L625.753 398.058C625.732 401.654 625.2 405.359 623.935 409.054C625.875 409.602 627.846 410.324 629.837 411.253C629.307 411.804 628.752 412.327 628.169 412.822C626.489 412.081 624.824 411.497 623.181 411.039C622.305 413.145 621.175 415.241 619.754 417.3C618.745 417.583 617.708 417.795 616.647 417.933C618.56 415.508 620.013 413.026 621.085 410.523C618.915 410.057 616.798 409.808 614.76 409.726L614.636 418.099C614.347 418.11 614.056 418.118 613.765 418.118C613.347 418.118 612.931 418.105 612.518 418.083L612.643 409.7C610.102 409.737 607.71 410.017 605.521 410.435C606.686 412.833 608.199 415.297 610.126 417.819C609.038 417.641 607.98 417.382 606.953 417.051C605.511 414.958 604.336 412.904 603.394 410.898C601.679 411.314 600.123 411.801 598.762 412.293C598.193 411.772 597.651 411.224 597.14 410.647C598.683 410.057 600.501 409.453 602.544 408.943C601.022 405.156 600.318 401.551 600.186 398.18C600.176 397.883 600.168 397.59 600.165 397.299L591.543 397.042C591.524 396.653 591.514 396.258 591.514 395.864C591.514 395.549 591.519 395.237 591.532 394.925L600.221 395.181C600.461 391.228 601.467 387.639 602.806 384.5C600.043 383.765 597.786 382.902 596.198 382.211C596.651 381.626 597.135 381.068 597.643 380.531C599.173 381.169 601.234 381.92 603.703 382.558C605.495 378.962 607.654 376.069 609.406 374.037C610.459 373.828 611.539 373.693 612.64 373.637C610.962 375.336 608.099 378.594 605.807 383.05C607.988 383.503 610.417 383.844 613.027 383.945ZM623.628 397.995L614.937 397.738L614.792 407.614C617.065 407.702 619.431 407.985 621.858 408.527C623.091 404.989 623.61 401.437 623.628 397.995ZM602.285 397.362C602.287 397.606 602.293 397.852 602.303 398.098C602.428 401.348 603.132 404.817 604.637 408.466C607.085 407.969 609.79 407.63 612.675 407.59L612.823 397.674L602.285 397.362ZM621.701 385.493C619.431 385.882 617.224 386.059 615.112 386.083L614.969 395.621L623.578 395.875C623.422 392.853 622.906 389.936 622.188 387.21C622.035 386.631 621.873 386.057 621.701 385.493ZM604.876 385.003C603.566 387.996 602.576 391.442 602.338 395.245L612.855 395.557L612.995 386.051C610.039 385.94 607.305 385.535 604.876 385.003Z" fill="#E4E4E6"/>
<path fill-rule="evenodd" clip-rule="evenodd" d="M422.221 474.907C422.882 488.092 424.994 499.31 428.551 509.663C430.877 516.504 437.3 521.103 444.525 521.103C444.525 521.111 444.525 521.111 444.525 521.111C450.611 521.111 456.1 517.448 458.434 511.827C462.475 502.118 465.881 490.193 468.319 474.907H422.221Z" fill="#F27F71"/>
<path fill-rule="evenodd" clip-rule="evenodd" d="M422.648 481.111C422.603 480.6 422.561 480.087 422.519 479.568L434.507 479.791C434.507 479.791 437.256 488.96 439.776 497.106C443.137 507.964 446.344 515.178 453.294 518.296C452.632 518.77 451.931 519.19 451.2 519.55C448.969 520.365 446.209 521.112 444.523 521.112C444.523 521.112 444.523 521.112 444.523 521.104C444.478 521.104 444.431 521.104 444.386 521.104C444.121 521.101 443.859 521.093 443.597 521.08L443.513 521.075C443.401 521.067 443.288 521.061 443.176 521.051L443.094 521.046L443.012 521.038L442.928 521.03C442.901 521.027 442.875 521.024 442.846 521.022L442.801 521.016C442.703 521.008 442.607 520.995 442.51 520.985C442.457 520.979 442.404 520.971 442.351 520.966L442.266 520.956C442.131 520.934 441.994 520.916 441.859 520.895L441.776 520.881C441.75 520.876 441.721 520.871 441.694 520.866L441.612 520.852C441.586 520.847 441.56 520.844 441.53 520.839L441.454 520.823C441.364 520.807 441.274 520.792 441.184 520.773C440.742 520.683 440.305 520.577 439.876 520.453C439.733 520.413 439.593 520.371 439.45 520.326C439.265 520.267 439.08 520.204 438.897 520.14C438.828 520.117 438.76 520.09 438.691 520.066L438.537 520.008C437.473 519.603 436.457 519.095 435.502 518.492L435.367 518.404C435.314 518.37 435.261 518.336 435.211 518.301L435.097 518.224L434.962 518.134L434.92 518.105C434.47 517.793 434.036 517.462 433.62 517.108C433.475 516.986 433.332 516.862 433.192 516.735L433.072 516.623L432.953 516.515C432.914 516.478 432.877 516.441 432.837 516.404L432.739 516.308C432.199 515.782 431.694 515.218 431.228 514.623C430.987 514.313 430.754 513.995 430.535 513.67C430.466 513.564 430.397 513.461 430.328 513.355C430.243 513.223 430.161 513.088 430.079 512.953L430.053 512.91L430.026 512.865C429.839 512.551 429.661 512.228 429.492 511.9L429.455 511.825L429.428 511.77C429.203 511.317 428.997 510.854 428.809 510.378L428.78 510.298C428.738 510.187 428.695 510.076 428.656 509.965C428.619 509.864 428.584 509.764 428.55 509.663L428.47 509.433L428.447 509.359L428.394 509.205L428.362 509.116L428.314 508.973L428.282 508.88L428.237 508.742L428.206 508.647L428.158 508.507L428.129 508.414L428.081 508.266L428.052 508.184L427.994 507.999L427.978 507.954L427.901 507.721L427.883 507.657L427.827 507.491L427.801 507.403L427.753 507.258L427.724 507.162L427.679 507.022L427.65 506.927L427.605 506.787L427.576 506.691L427.531 506.546L427.504 506.459L427.451 506.292L427.43 506.226L427.361 505.99L427.346 505.945L427.29 505.757L427.264 505.673L427.219 505.522L427.192 505.429L427.147 505.286L427.121 505.188L427.078 505.048L427.049 504.953L427.007 504.807L426.98 504.715L426.935 504.558L426.912 504.479L426.845 504.249L426.843 504.243L426.777 504.005L426.755 503.929L426.708 503.77L426.684 503.677L426.642 503.532L426.615 503.434L426.576 503.291L426.549 503.193L426.509 503.05L426.483 502.955L426.441 502.801L426.419 502.714L426.366 502.526L426.353 502.476L426.29 502.237L426.271 502.169L426.226 501.997L426.202 501.907L426.163 501.756L426.136 501.658L426.099 501.515L426.075 501.414L426.038 501.272L426.012 501.174L425.975 501.023L425.951 500.93L425.906 500.761L425.89 500.689L425.829 500.446L425.816 500.398L425.768 500.205L425.747 500.118L425.71 499.962L425.686 499.864L425.649 499.718L425.625 499.615L425.591 499.472L425.567 499.369L425.53 499.223L425.509 499.125L425.472 498.964L425.451 498.879L425.398 498.654L425.393 498.633L425.337 498.39L425.318 498.305L425.281 498.146L425.26 498.046L425.226 497.897L425.202 497.794L425.17 497.649L425.146 497.545L425.115 497.4L425.094 497.297L425.059 497.143L425.038 497.048L424.998 496.865L424.985 496.799L424.932 496.556L424.916 496.476L424.879 496.307L424.858 496.206L424.829 496.055L424.805 495.95L424.776 495.804L424.755 495.696L424.726 495.553L424.702 495.444L424.673 495.299L424.652 495.193L424.62 495.031L424.601 494.941L424.554 494.695L424.54 494.624L424.506 494.444L424.485 494.341L424.456 494.19L424.435 494.079L424.408 493.938L424.387 493.822L424.36 493.682L424.339 493.568L424.313 493.425L424.292 493.314L424.265 493.166L424.247 493.057L424.212 492.872L424.199 492.806L424.191 492.755L424.157 492.557L424.136 492.446L424.112 492.3L424.091 492.181L424.067 492.044L424.046 491.922L424.022 491.787L424.001 491.665L423.979 491.53L423.958 491.406L423.934 491.271L423.916 491.149L423.892 491.001L423.874 490.89L423.834 490.644L423.813 490.522L423.791 490.384L423.77 490.255L423.752 490.125L423.731 489.993L423.709 489.866L423.691 489.733L423.67 489.606L423.649 489.471L423.63 489.347L423.609 489.209L423.593 489.087L423.572 488.947L423.556 488.836L423.535 488.698L423.514 488.556L423.498 488.442L423.477 488.296L423.461 488.18L423.44 488.034L423.424 487.918L423.402 487.772L423.389 487.656L423.368 487.508L423.352 487.396L423.331 487.243L423.318 487.14L423.297 486.978L423.289 486.909L423.262 486.724L423.236 486.507L423.23 486.473L423.209 486.298L423.196 486.208L423.178 486.041L423.164 485.944L423.143 485.777L423.133 485.679L423.111 485.512L423.101 485.417L423.08 485.245L423.069 485.16L423.048 484.975L423.043 484.93L423.016 484.718C423.008 484.634 422.998 484.549 422.99 484.464L422.963 484.247L422.961 484.205L422.937 484.009L422.931 483.938L422.91 483.747L422.902 483.673L422.881 483.482L422.873 483.408L422.852 483.212L422.847 483.152L422.826 482.943L422.823 482.921C422.788 482.591 422.757 482.262 422.725 481.929L422.722 481.905L422.701 481.68L422.696 481.635L422.677 481.416L422.672 481.371L422.654 481.146L422.648 481.111Z" fill="#FFC2BA"/>
<path fill-rule="evenodd" clip-rule="evenodd" d="M278.654 475.227C279.316 488.412 281.428 499.63 284.985 509.983C287.311 516.824 293.734 521.423 300.958 521.423C300.958 521.431 300.958 521.431 300.958 521.431C307.045 521.431 312.534 517.768 314.868 512.147C318.909 502.438 322.315 490.513 324.752 475.227H278.654Z" fill="#FFC3BB"/>
<path fill-rule="evenodd" clip-rule="evenodd" d="M278.75 476.958C278.715 476.384 278.684 475.809 278.654 475.227H324.752C324.53 476.614 324.302 477.969 324.067 479.3L316.533 479.176C315.138 483.645 306.696 510.642 302.549 514.982C299.154 518.533 297.388 519.713 295.636 520.563C290.772 518.946 286.8 515.159 285.04 510.144L285.038 510.139L285.016 510.073L284.985 509.983C284.458 508.45 283.963 506.897 283.5 505.322C283.436 505.111 283.376 504.899 283.315 504.684C283.145 504.102 282.984 503.515 282.823 502.922C282.791 502.798 282.756 502.673 282.722 502.546C282.537 501.845 282.354 501.136 282.179 500.421C282.031 499.818 281.886 499.209 281.748 498.598C281.552 497.748 281.367 496.891 281.19 496.023C281.065 495.417 280.946 494.803 280.83 494.186C280.782 493.924 280.732 493.662 280.684 493.398L280.637 493.128C280.568 492.744 280.499 492.357 280.435 491.968C280.316 491.267 280.203 490.558 280.094 489.843L280.052 489.566C279.978 489.084 279.909 488.597 279.84 488.107L279.811 487.89L279.803 487.827C279.565 486.067 279.356 484.275 279.178 482.444L279.152 482.15L279.147 482.103C279.096 481.56 279.046 481.015 279.001 480.464C278.906 479.311 278.821 478.144 278.75 476.958Z" fill="#F27F71"/>
<path fill-rule="evenodd" clip-rule="evenodd" d="M498.906 351.752C500.87 351.201 502.484 350.702 502.887 350.451C507.608 347.512 511.593 342.661 513.708 337.155C515.751 331.842 516.262 325.945 513.782 320.729C510.807 325.008 506.089 327.915 501.788 328.255C496.998 328.633 492.394 326.29 490.081 319.513C487.355 311.524 492.664 305.164 500.595 303.57C503.63 302.96 507.105 303.143 510.553 304.375C510.342 302.317 509.831 300.303 509.082 298.365C507.108 293.256 503.598 288.646 499.43 285.082C498.364 284.223 498.197 282.66 499.055 281.594C499.912 280.528 501.476 280.36 502.543 281.219C507.632 285.076 511.982 290.228 514.629 296.031C516.389 299.891 517.357 304.042 517.304 308.331C519.506 310.215 521.544 312.677 523.269 315.796C527.591 323.61 527.66 332.733 524.992 341.115C522.37 349.363 516.868 356.756 510.207 361.467C509.373 362.06 506.142 363.531 502.394 364.965C502.85 367.191 503.27 369.509 503.659 371.933C510.911 417.097 510.627 459.289 497.292 501.838C493.51 513.831 482.388 521.99 469.814 521.99C469.812 521.993 469.812 521.993 469.812 521.993C458.647 521.993 448.72 514.874 445.142 504.294C440.839 491.578 435.795 476.665 435.795 476.665H313.56C313.56 476.665 307.264 494.473 302.566 507.766C299.552 516.293 291.491 521.993 282.448 521.993H282.446C271.19 521.993 261.419 514.234 258.87 503.27C255.968 490.789 252.683 476.665 252.683 476.665H215.911C211.643 476.665 207.64 474.17 206.129 470.179C201.423 457.749 192.053 425.767 207.032 388.439C208.132 385.7 210.979 384.062 213.932 384.062C223.729 384.054 245.37 384.054 245.37 384.054C245.37 384.054 248.642 334.215 293.775 307.934L281.498 284.503C281.498 284.503 302.027 276.416 320.199 299.791C363.511 289.599 401.704 288.503 450.342 302.934C461.727 306.292 472.024 312.593 480.199 321.2C485.889 327.178 490.372 333.167 493.929 339.961C495.842 343.617 497.485 347.507 498.906 351.752ZM508.965 314.714C507.52 313.69 505.98 313.094 504.461 312.904C501.047 312.477 497.416 313.776 498.303 316.976C499.065 319.736 500.894 320.658 502.855 320.051C505.271 319.302 507.663 317.305 508.965 314.714Z" fill="#FFC3BB"/>
<path fill-rule="evenodd" clip-rule="evenodd" d="M312.699 479.109L316.639 466.983C316.83 466.393 317.415 466.02 318.029 466.096C318.645 466.173 319.122 466.676 319.164 467.295L319.81 476.669H313.562L312.699 479.109ZM428.329 476.669L430.372 466.528C430.464 466.078 430.845 465.744 431.306 465.715C431.764 465.683 432.187 465.967 432.335 466.403C433.836 470.833 436.194 477.796 436.194 477.796L436.183 477.799L435.799 476.669H428.329ZM475.991 392.322C475.991 358.107 449.672 329.648 415.56 326.98C390.662 325.009 365.91 325.026 341.304 326.974C307.189 329.636 280.865 358.096 280.865 392.314C280.863 392.314 280.863 392.314 280.863 392.314C280.863 427.776 309.057 456.815 344.506 457.858C367.204 458.533 389.818 458.533 412.347 457.866C447.796 456.823 475.991 427.784 475.991 392.322ZM230.083 384.166C232.189 388.855 234.124 395.223 235.449 403.866C235.67 405.308 234.678 406.66 233.234 406.88C231.79 407.102 230.439 406.11 230.217 404.668C228.731 394.974 226.511 388.49 224.228 384.169L228.626 384.166H230.083ZM240.402 384.166C242.066 387.768 243.565 392.359 244.663 398.213C244.932 399.65 243.985 401.034 242.55 401.301C241.114 401.571 239.73 400.624 239.461 399.19C238.178 392.346 236.35 387.538 234.464 384.166H240.402ZM502.396 364.966C502.854 367.192 498.53 350.614 498.911 351.753C500.872 351.202 502.489 350.703 502.891 350.452C503.18 350.272 503.468 350.084 503.751 349.89C504.836 353.402 506.096 357.9 507.208 362.987C505.858 363.587 504.185 364.281 502.396 364.966ZM513.787 320.73C513.3 321.805 517.65 314.554 517.309 308.333C518.995 309.775 520.585 311.558 522.012 313.715C521.313 317.098 519.786 321.466 516.489 325.729C516.187 326.119 515.798 326.402 515.369 326.571C515.184 324.575 514.678 322.609 513.787 320.73ZM510.555 304.376C511.011 309.965 508.608 315.435 508.97 314.715C507.525 313.691 505.985 313.096 504.463 312.905C504.334 312.889 504.204 312.875 504.074 312.864C506.165 309.413 505.829 305.673 505.257 303.272C506.988 303.383 508.777 303.74 510.555 304.376ZM293.748 307.954L295.704 311.86C296.357 313.166 295.828 314.758 294.523 315.412C293.216 316.066 291.626 315.536 290.972 314.23L289.231 310.753C290.689 309.794 292.195 308.86 293.748 307.954ZM322.041 302.846C322.041 302.846 319.468 298.845 320.204 299.792C321.98 299.374 323.748 298.972 325.51 298.584L326.365 299.793C327.207 300.986 326.921 302.639 325.73 303.481C324.536 304.324 322.882 304.039 322.041 302.846Z" fill="#F27F71"/>
<path d="M212.488 476.776C220.302 476.776 226.636 456.044 226.636 430.469C226.636 404.895 220.302 384.163 212.488 384.163C204.675 384.163 198.341 404.895 198.341 430.469C198.341 456.044 204.675 476.776 212.488 476.776Z" fill="#F27F71"/>
<path fill-rule="evenodd" clip-rule="evenodd" d="M204.921 409.817V451.124C204.921 452.583 206.107 453.771 207.568 453.771C209.028 453.771 210.214 452.583 210.214 451.124V409.817C210.214 408.356 209.028 407.17 207.568 407.17C206.107 407.17 204.921 408.356 204.921 409.817Z" fill="#D7441E"/>
<path fill-rule="evenodd" clip-rule="evenodd" d="M214.762 409.817V451.124C214.762 452.583 215.948 453.771 217.408 453.771C218.869 453.771 220.055 452.583 220.055 451.124V409.817C220.055 408.356 218.869 407.17 217.408 407.17C215.948 407.17 214.762 408.356 214.762 409.817Z" fill="#D7441E"/>
<path fill-rule="evenodd" clip-rule="evenodd" d="M255.416 372.174C255.359 373.672 255.188 376.882 255.974 379.776C256.96 383.402 259.271 386.538 264.177 386.815C266.198 386.928 268.97 386.667 271.231 384.479C273.165 382.607 274.901 379.071 274.764 372.22L269.471 372.327C269.564 376.927 268.849 379.418 267.55 380.676C266.579 381.615 265.343 381.579 264.475 381.531C262.376 381.411 261.504 379.939 261.082 378.387C260.461 376.101 260.66 373.559 260.705 372.375L255.416 372.174Z" fill="black"/>
<path d="M436.304 306.921H331.322L333.974 318.585H438.957L436.304 306.921Z" fill="black"/>
<path fill-rule="evenodd" clip-rule="evenodd" d="M340.291 327.059C340.632 327.027 340.968 326.998 341.307 326.971C365.913 325.024 390.665 325.007 415.563 326.977C420.578 327.37 425.423 328.319 430.041 329.762V385.045H340.291V327.059Z" fill="#82B5B2"/>
<path fill-rule="evenodd" clip-rule="evenodd" d="M356.409 326.02C374.687 325.163 393.043 325.372 411.483 326.672C406.836 337.188 396.311 344.533 384.085 344.533C371.607 344.533 360.902 336.883 356.409 326.02Z" fill="#A8CFCC"/>
<path fill-rule="evenodd" clip-rule="evenodd" d="M368.963 385.044V359.263C368.963 356.188 371.456 353.695 374.529 353.695C377.604 353.695 380.097 356.188 380.097 359.263V385.044H368.963ZM387.557 385.044V365.837C387.557 362.764 390.052 360.269 393.125 360.269C396.197 360.269 398.693 362.764 398.693 365.837V385.044H387.557Z" fill="#A8CFCC"/>
<path d="M430.04 234.722H340.291V312.25H430.04V234.722Z" fill="#A8CFCC"/>
<path fill-rule="evenodd" clip-rule="evenodd" d="M354.235 312.25C355.434 296.822 368.349 284.659 384.082 284.659C399.815 284.659 412.729 296.822 413.928 312.25H354.235Z" fill="#82B5B2"/>
<path fill-rule="evenodd" clip-rule="evenodd" d="M401.931 234.722V256.689C401.931 259.762 399.438 262.256 396.366 262.256C393.293 262.256 390.797 259.762 390.797 256.689V234.722H401.931ZM383.337 234.722V250.115C383.337 253.188 380.842 255.682 377.769 255.682C374.697 255.682 372.201 253.188 372.201 250.115V234.722H383.337Z" fill="#82B5B2"/>
<path d="M340.385 412.617C356.001 412.617 368.66 400.085 368.66 384.626C368.66 369.167 356.001 356.635 340.385 356.635C324.769 356.635 312.109 369.167 312.109 384.626C312.109 400.085 324.769 412.617 340.385 412.617Z" fill="#FFCF84"/>
<path fill-rule="evenodd" clip-rule="evenodd" d="M340.387 362.794C352.559 362.794 362.441 372.577 362.441 384.627C362.441 396.676 352.559 406.459 340.387 406.459C339.892 406.459 339.491 406.857 339.491 407.346C339.491 407.836 339.892 408.233 340.387 408.233C353.547 408.233 364.233 397.655 364.233 384.627C364.233 371.598 353.547 361.02 340.387 361.02C339.892 361.02 339.491 361.417 339.491 361.907C339.491 362.396 339.892 362.794 340.387 362.794Z" fill="#FD9909"/>
<path fill-rule="evenodd" clip-rule="evenodd" d="M340.385 406.459C328.212 406.459 318.329 396.676 318.329 384.627C318.329 372.577 328.212 362.794 340.385 362.794C340.879 362.794 341.281 362.396 341.281 361.907C341.281 361.417 340.879 361.02 340.385 361.02C327.223 361.02 316.539 371.598 316.539 384.627C316.539 397.655 327.223 408.233 340.385 408.233C340.879 408.233 341.281 407.836 341.281 407.346C341.281 406.857 340.879 406.459 340.385 406.459Z" fill="#FD9909"/>
<path fill-rule="evenodd" clip-rule="evenodd" d="M343.787 412.416L343.208 407.805C343.147 407.319 343.496 406.876 343.987 406.815C344.478 406.755 344.924 407.1 344.987 407.586L345.559 412.149C344.975 412.256 344.383 412.345 343.787 412.416ZM349.074 411.268L347.472 406.589C347.314 406.125 347.565 405.621 348.035 405.464C348.502 405.307 349.011 405.556 349.169 406.019L350.761 410.669C350.208 410.885 349.645 411.085 349.074 411.268ZM324.796 407.978L327.286 403.924C327.542 403.506 328.094 403.373 328.517 403.627C328.94 403.882 329.074 404.428 328.818 404.846L326.32 408.911C325.801 408.615 325.292 408.304 324.796 407.978ZM363.647 400.531L359.531 397.516C359.135 397.225 359.051 396.669 359.345 396.276C359.639 395.882 360.2 395.799 360.597 396.09L364.621 399.038C364.313 399.547 363.987 400.044 363.647 400.531ZM313.51 393.351L318.346 391.197C318.796 390.996 319.328 391.195 319.53 391.641C319.733 392.088 319.532 392.613 319.08 392.814L314.125 395.022C313.903 394.474 313.697 393.917 313.51 393.351ZM367.819 377.837C367.963 378.409 368.09 378.987 368.197 379.571L363.43 380.684C362.95 380.797 362.466 380.501 362.353 380.025C362.238 379.549 362.538 379.071 363.018 378.958L367.819 377.837ZM317.018 368.865L321.279 371.623C321.693 371.891 321.809 372.441 321.539 372.851C321.268 373.26 320.713 373.375 320.299 373.107L316.056 370.36C316.361 369.851 316.683 369.352 317.018 368.865ZM319.799 365.443L323.264 367.965C323.662 368.255 323.748 368.811 323.454 369.205C323.162 369.599 322.599 369.684 322.201 369.394L318.609 366.777C318.991 366.32 319.389 365.875 319.799 365.443ZM356.726 361.788C357.213 362.131 357.69 362.488 358.154 362.861L355.056 366.727C354.748 367.11 354.183 367.175 353.796 366.87C353.409 366.566 353.345 366.008 353.651 365.625L356.726 361.788ZM351.928 359.071C352.474 359.314 353.012 359.574 353.538 359.848L351.354 363.904C351.122 364.336 350.579 364.499 350.141 364.269C349.706 364.039 349.541 363.501 349.774 363.069L351.928 359.071ZM334.042 357.344L335.303 361.795C335.436 362.267 335.158 362.756 334.682 362.889C334.205 363.021 333.711 362.746 333.578 362.274L332.31 357.795C332.879 357.627 333.456 357.476 334.042 357.344Z" fill="#FD9909"/>
<path d="M415.59 447.293C431.206 447.293 443.866 434.761 443.866 419.302C443.866 403.843 431.206 391.311 415.59 391.311C399.974 391.311 387.315 403.843 387.315 419.302C387.315 434.761 399.974 447.293 415.59 447.293Z" fill="#FFCF84"/>
<path fill-rule="evenodd" clip-rule="evenodd" d="M415.593 397.47C427.764 397.47 437.647 407.253 437.647 419.303C437.647 431.353 427.764 441.136 415.593 441.136C415.098 441.136 414.697 441.533 414.697 442.023C414.697 442.512 415.098 442.91 415.593 442.91C428.753 442.91 439.439 432.332 439.439 419.303C439.439 406.274 428.753 395.697 415.593 395.697C415.098 395.697 414.697 396.094 414.697 396.584C414.697 397.073 415.098 397.47 415.593 397.47Z" fill="#FD9909"/>
<path fill-rule="evenodd" clip-rule="evenodd" d="M415.591 441.136C403.417 441.136 393.535 431.353 393.535 419.303C393.535 407.253 403.417 397.47 415.591 397.47C416.085 397.47 416.486 397.073 416.486 396.584C416.486 396.094 416.085 395.697 415.591 395.697C402.429 395.697 391.745 406.274 391.745 419.303C391.745 432.332 402.429 442.91 415.591 442.91C416.085 442.91 416.486 442.512 416.486 442.023C416.486 441.533 416.085 441.136 415.591 441.136Z" fill="#FD9909"/>
<path fill-rule="evenodd" clip-rule="evenodd" d="M418.993 447.093L418.414 442.481C418.353 441.996 418.702 441.552 419.193 441.492C419.684 441.432 420.13 441.777 420.193 442.263L420.764 446.825C420.18 446.933 419.589 447.022 418.993 447.093ZM424.28 445.945L422.678 441.265C422.52 440.802 422.771 440.298 423.24 440.141C423.708 439.984 424.217 440.233 424.375 440.696L425.967 445.345C425.414 445.562 424.851 445.762 424.28 445.945ZM400.002 442.655L402.492 438.601C402.748 438.183 403.3 438.05 403.723 438.304C404.146 438.558 404.28 439.104 404.024 439.523L401.526 443.587C401.007 443.292 400.498 442.981 400.002 442.655ZM438.852 435.207L434.737 432.193C434.341 431.901 434.257 431.346 434.551 430.952C434.845 430.559 435.405 430.476 435.803 430.767L439.827 433.715C439.519 434.223 439.193 434.721 438.852 435.207ZM388.716 428.028L393.552 425.873C394.001 425.672 394.534 425.872 394.736 426.318C394.938 426.764 394.738 427.29 394.286 427.491L389.331 429.699C389.109 429.15 388.903 428.593 388.716 428.028ZM443.025 412.514C443.168 413.086 443.296 413.664 443.403 414.248L438.636 415.361C438.156 415.473 437.672 415.178 437.559 414.702C437.444 414.225 437.743 413.747 438.224 413.635L443.025 412.514ZM392.224 403.541L396.485 406.3C396.898 406.568 397.015 407.118 396.744 407.527C396.474 407.937 395.918 408.052 395.505 407.784L391.262 405.037C391.567 404.527 391.889 404.029 392.224 403.541ZM395.005 400.12L398.47 402.642C398.867 402.932 398.953 403.488 398.66 403.882C398.368 404.276 397.805 404.361 397.407 404.071L393.815 401.454C394.197 400.997 394.594 400.552 395.005 400.12ZM431.932 396.465C432.419 396.808 432.895 397.165 433.359 397.537L430.262 401.404C429.954 401.787 429.389 401.851 429.002 401.547C428.615 401.243 428.551 400.685 428.857 400.301L431.932 396.465ZM427.134 393.748C427.68 393.991 428.218 394.25 428.744 394.525L426.56 398.58C426.327 399.012 425.785 399.176 425.347 398.946C424.912 398.715 424.747 398.178 424.98 397.746L427.134 393.748ZM409.248 392.02L410.509 396.472C410.642 396.943 410.364 397.433 409.888 397.565C409.411 397.698 408.917 397.422 408.784 396.951L407.516 392.472C408.085 392.304 408.662 392.153 409.248 392.02Z" fill="#FD9909"/>
<path d="M279.2 234.575C294.817 234.575 307.476 222.043 307.476 206.584C307.476 191.125 294.817 178.593 279.2 178.593C263.584 178.593 250.925 191.125 250.925 206.584C250.925 222.043 263.584 234.575 279.2 234.575Z" fill="#FFCF84"/>
<path fill-rule="evenodd" clip-rule="evenodd" d="M279.203 184.752C291.374 184.752 301.257 194.535 301.257 206.585C301.257 218.635 291.374 228.418 279.203 228.418C278.708 228.418 278.307 228.815 278.307 229.305C278.307 229.794 278.708 230.191 279.203 230.191C292.363 230.191 303.049 219.614 303.049 206.585C303.049 193.556 292.363 182.978 279.203 182.978C278.708 182.978 278.307 183.376 278.307 183.865C278.307 184.355 278.708 184.752 279.203 184.752Z" fill="#FD9909"/>
<path fill-rule="evenodd" clip-rule="evenodd" d="M279.201 228.418C267.028 228.418 257.145 218.635 257.145 206.585C257.145 194.535 267.028 184.752 279.201 184.752C279.695 184.752 280.097 184.355 280.097 183.865C280.097 183.376 279.695 182.978 279.201 182.978C266.039 182.978 255.355 193.556 255.355 206.585C255.355 219.614 266.039 230.191 279.201 230.191C279.695 230.191 280.097 229.794 280.097 229.305C280.097 228.815 279.695 228.418 279.201 228.418Z" fill="#FD9909"/>
<path fill-rule="evenodd" clip-rule="evenodd" d="M282.603 234.375L282.024 229.763C281.963 229.277 282.312 228.834 282.803 228.774C283.294 228.713 283.74 229.059 283.803 229.544L284.375 234.107C283.79 234.214 283.199 234.304 282.603 234.375ZM287.89 233.226L286.288 228.547C286.13 228.083 286.381 227.58 286.851 227.423C287.318 227.265 287.827 227.514 287.985 227.978L289.577 232.627C289.024 232.844 288.461 233.044 287.89 233.226ZM263.612 229.937L266.102 225.883C266.358 225.465 266.91 225.331 267.333 225.586C267.756 225.84 267.89 226.386 267.634 226.804L265.136 230.869C264.617 230.574 264.108 230.262 263.612 229.937ZM302.463 222.489L298.347 219.474C297.951 219.183 297.867 218.628 298.161 218.234C298.455 217.841 299.016 217.758 299.413 218.049L303.437 220.997C303.129 221.505 302.803 222.003 302.463 222.489ZM252.326 215.31L257.162 213.155C257.612 212.954 258.144 213.154 258.346 213.6C258.549 214.046 258.348 214.572 257.896 214.772L252.941 216.981C252.719 216.432 252.513 215.875 252.326 215.31ZM306.635 199.796C306.779 200.367 306.906 200.945 307.013 201.53L302.246 202.643C301.766 202.755 301.282 202.46 301.169 201.983C301.054 201.507 301.354 201.029 301.834 200.917L306.635 199.796ZM255.834 190.823L260.095 193.582C260.509 193.85 260.625 194.399 260.354 194.809C260.084 195.219 259.529 195.334 259.115 195.066L254.872 192.318C255.177 191.809 255.499 191.31 255.834 190.823ZM258.615 187.401L262.08 189.924C262.478 190.214 262.564 190.769 262.27 191.163C261.978 191.558 261.415 191.642 261.017 191.352L257.425 188.736C257.807 188.278 258.205 187.834 258.615 187.401ZM295.542 183.747C296.029 184.089 296.505 184.447 296.97 184.819L293.872 188.685C293.564 189.069 292.999 189.133 292.612 188.829C292.225 188.525 292.161 187.966 292.467 187.583L295.542 183.747ZM290.744 181.03C291.29 181.272 291.828 181.532 292.354 181.807L290.17 185.862C289.937 186.294 289.395 186.458 288.957 186.227C288.522 185.997 288.357 185.459 288.59 185.028L290.744 181.03ZM272.858 179.302L274.119 183.754C274.252 184.225 273.974 184.715 273.498 184.847C273.021 184.979 272.527 184.704 272.394 184.233L271.126 179.754C271.695 179.586 272.272 179.435 272.858 179.302Z" fill="#FD9909"/>
<path d="M183.729 337.532C199.345 337.532 212.004 325 212.004 309.541C212.004 294.082 199.345 281.55 183.729 281.55C168.113 281.55 155.453 294.082 155.453 309.541C155.453 325 168.113 337.532 183.729 337.532Z" fill="#FFCF84"/>
<path fill-rule="evenodd" clip-rule="evenodd" d="M183.731 287.709C195.903 287.709 205.785 297.492 205.785 309.542C205.785 321.592 195.903 331.375 183.731 331.375C183.236 331.375 182.835 331.772 182.835 332.262C182.835 332.751 183.236 333.148 183.731 333.148C196.891 333.148 207.577 322.571 207.577 309.542C207.577 296.513 196.891 285.936 183.731 285.936C183.236 285.936 182.835 286.333 182.835 286.822C182.835 287.312 183.236 287.709 183.731 287.709Z" fill="#FD9909"/>
<path fill-rule="evenodd" clip-rule="evenodd" d="M183.729 331.375C171.556 331.375 161.673 321.592 161.673 309.542C161.673 297.492 171.556 287.709 183.729 287.709C184.223 287.709 184.625 287.312 184.625 286.822C184.625 286.333 184.223 285.936 183.729 285.936C170.567 285.936 159.883 296.513 159.883 309.542C159.883 322.571 170.567 333.148 183.729 333.148C184.223 333.148 184.625 332.751 184.625 332.262C184.625 331.772 184.223 331.375 183.729 331.375Z" fill="#FD9909"/>
<path fill-rule="evenodd" clip-rule="evenodd" d="M187.131 337.332L186.552 332.72C186.491 332.234 186.841 331.791 187.331 331.731C187.822 331.67 188.268 332.016 188.331 332.502L188.903 337.064C188.319 337.171 187.727 337.261 187.131 337.332ZM192.418 336.183L190.816 331.504C190.658 331.041 190.909 330.537 191.379 330.38C191.846 330.223 192.355 330.471 192.513 330.935L194.106 335.584C193.552 335.801 192.989 336.001 192.418 336.183ZM168.14 332.894L170.63 328.84C170.886 328.422 171.438 328.289 171.861 328.543C172.284 328.797 172.418 329.343 172.162 329.761L169.664 333.826C169.145 333.531 168.636 333.22 168.14 332.894ZM206.991 325.446L202.875 322.432C202.479 322.14 202.395 321.585 202.689 321.191C202.983 320.798 203.544 320.715 203.941 321.006L207.965 323.954C207.657 324.462 207.331 324.96 206.991 325.446ZM156.854 318.267L161.69 316.112C162.14 315.911 162.672 316.111 162.874 316.557C163.077 317.003 162.876 317.529 162.425 317.73L157.469 319.938C157.247 319.389 157.041 318.832 156.854 318.267ZM211.163 302.753C211.307 303.324 211.434 303.903 211.541 304.487L206.774 305.6C206.294 305.712 205.81 305.417 205.697 304.94C205.583 304.464 205.882 303.986 206.362 303.874L211.163 302.753ZM160.362 293.78L164.623 296.539C165.037 296.807 165.153 297.357 164.883 297.766C164.612 298.176 164.057 298.291 163.643 298.023L159.4 295.275C159.705 294.766 160.027 294.267 160.362 293.78ZM163.143 290.358L166.608 292.881C167.006 293.171 167.092 293.726 166.798 294.121C166.506 294.515 165.943 294.599 165.546 294.309L161.953 291.693C162.335 291.236 162.733 290.791 163.143 290.358ZM200.07 286.704C200.557 287.047 201.034 287.404 201.498 287.776L198.4 291.642C198.092 292.026 197.527 292.09 197.14 291.786C196.754 291.482 196.689 290.923 196.995 290.54L200.07 286.704ZM195.272 283.987C195.818 284.23 196.356 284.489 196.883 284.764L194.699 288.819C194.466 289.251 193.923 289.415 193.486 289.184C193.05 288.954 192.885 288.417 193.118 287.985L195.272 283.987ZM177.386 282.259L178.648 286.711C178.78 287.182 178.502 287.672 178.026 287.804C177.549 287.936 177.055 287.661 176.922 287.19L175.654 282.711C176.224 282.543 176.8 282.392 177.386 282.259Z" fill="#FD9909"/>
<path d="M570.073 299.681C585.689 299.681 598.348 287.149 598.348 271.69C598.348 256.231 585.689 243.699 570.073 243.699C554.457 243.699 541.798 256.231 541.798 271.69C541.798 287.149 554.457 299.681 570.073 299.681Z" fill="#FFCF84"/>
<path fill-rule="evenodd" clip-rule="evenodd" d="M570.075 249.858C582.247 249.858 592.13 259.641 592.13 271.691C592.13 283.741 582.247 293.524 570.075 293.524C569.581 293.524 569.179 293.921 569.179 294.411C569.179 294.9 569.581 295.297 570.075 295.297C583.236 295.297 593.921 284.72 593.921 271.691C593.921 258.662 583.236 248.084 570.075 248.084C569.581 248.084 569.179 248.482 569.179 248.971C569.179 249.461 569.581 249.858 570.075 249.858Z" fill="#FD9909"/>
<path fill-rule="evenodd" clip-rule="evenodd" d="M570.073 293.524C557.9 293.524 548.017 283.741 548.017 271.691C548.017 259.641 557.9 249.858 570.073 249.858C570.568 249.858 570.969 249.461 570.969 248.971C570.969 248.482 570.568 248.084 570.073 248.084C556.911 248.084 546.227 258.662 546.227 271.691C546.227 284.72 556.911 295.297 570.073 295.297C570.568 295.297 570.969 294.9 570.969 294.411C570.969 293.921 570.568 293.524 570.073 293.524Z" fill="#FD9909"/>
<path fill-rule="evenodd" clip-rule="evenodd" d="M573.475 299.481L572.896 294.869C572.835 294.383 573.185 293.94 573.676 293.88C574.167 293.819 574.613 294.165 574.675 294.65L575.247 299.213C574.663 299.32 574.072 299.41 573.475 299.481ZM578.762 298.332L577.16 293.653C577.003 293.189 577.254 292.685 577.723 292.529C578.191 292.371 578.699 292.62 578.857 293.084L580.45 297.733C579.896 297.95 579.334 298.15 578.762 298.332ZM554.484 295.043L556.974 290.989C557.231 290.57 557.782 290.437 558.205 290.692C558.628 290.946 558.762 291.492 558.506 291.91L556.009 295.975C555.489 295.68 554.98 295.368 554.484 295.043ZM593.335 287.595L589.22 284.58C588.824 284.289 588.74 283.734 589.033 283.34C589.327 282.947 589.888 282.864 590.286 283.155L594.31 286.103C594.002 286.611 593.675 287.109 593.335 287.595ZM543.199 280.415L548.034 278.261C548.484 278.06 549.016 278.26 549.219 278.706C549.421 279.152 549.22 279.677 548.769 279.878L543.813 282.087C543.591 281.538 543.385 280.981 543.199 280.415ZM597.508 264.902C597.651 265.473 597.778 266.051 597.886 266.636L593.118 267.749C592.638 267.861 592.154 267.566 592.042 267.089C591.927 266.613 592.226 266.135 592.706 266.022L597.508 264.902ZM546.707 255.929L550.967 258.687C551.381 258.955 551.497 259.505 551.227 259.915C550.956 260.325 550.401 260.44 549.987 260.172L545.745 257.424C546.049 256.915 546.372 256.416 546.707 255.929ZM549.487 252.507L552.952 255.03C553.35 255.32 553.436 255.875 553.142 256.269C552.85 256.664 552.288 256.748 551.89 256.458L548.298 253.842C548.679 253.384 549.077 252.939 549.487 252.507ZM586.414 248.853C586.901 249.195 587.378 249.553 587.842 249.925L584.744 253.791C584.436 254.175 583.872 254.239 583.485 253.935C583.098 253.631 583.033 253.072 583.34 252.689L586.414 248.853ZM581.616 246.136C582.163 246.378 582.7 246.638 583.227 246.913L581.043 250.968C580.81 251.4 580.267 251.564 579.83 251.333C579.395 251.103 579.23 250.565 579.463 250.133L581.616 246.136ZM563.731 244.408L564.992 248.86C565.124 249.331 564.847 249.821 564.37 249.953C563.894 250.085 563.399 249.81 563.267 249.339L561.998 244.86C562.568 244.692 563.145 244.541 563.731 244.408Z" fill="#FD9909"/>
<path fill-rule="evenodd" clip-rule="evenodd" d="M469.232 237.592V233.177C469.232 232.446 469.825 231.853 470.555 231.853C471.286 231.853 471.878 232.446 471.878 233.177V237.592H476.292C477.023 237.592 477.616 238.184 477.616 238.915C477.616 239.645 477.023 240.238 476.292 240.238H471.878V244.653C471.878 245.383 471.286 245.976 470.555 245.976C469.825 245.976 469.232 245.383 469.232 244.653V240.238H464.815C464.085 240.238 463.492 239.645 463.492 238.915C463.492 238.184 464.085 237.592 464.815 237.592H469.232Z" fill="#FD9500"/>
<path fill-rule="evenodd" clip-rule="evenodd" d="M253.389 287.675V283.26C253.389 282.529 253.982 281.936 254.712 281.936C255.442 281.936 256.035 282.529 256.035 283.26V287.675H260.449C261.18 287.675 261.773 288.267 261.773 288.998C261.773 289.728 261.18 290.321 260.449 290.321H256.035V294.736C256.035 295.466 255.442 296.059 254.712 296.059C253.982 296.059 253.389 295.466 253.389 294.736V290.321H248.972C248.241 290.321 247.649 289.728 247.649 288.998C247.649 288.267 248.241 287.675 248.972 287.675H253.389Z" fill="#FD9500"/>
<path fill-rule="evenodd" clip-rule="evenodd" d="M555.646 332.942V328.527C555.646 327.797 556.239 327.204 556.97 327.204C557.7 327.204 558.293 327.797 558.293 328.527V332.942H562.707C563.437 332.942 564.03 333.535 564.03 334.265C564.03 334.996 563.437 335.589 562.707 335.589H558.293V340.004C558.293 340.734 557.7 341.327 556.97 341.327C556.239 341.327 555.646 340.734 555.646 340.004V335.589H551.229C550.499 335.589 549.906 334.996 549.906 334.265C549.906 333.535 550.499 332.942 551.229 332.942H555.646Z" fill="#FD9500"/>
</svg>
